<?xml version="1.0" encoding="UTF-8" standalone="no"?>
<svg
   xmlns:dc="http://purl.org/dc/elements/1.1/"
   xmlns:cc="http://creativecommons.org/ns#"
   xmlns:rdf="http://www.w3.org/1999/02/22-rdf-syntax-ns#"
   xmlns:svg="http://www.w3.org/2000/svg"
   xmlns="http://www.w3.org/2000/svg"
   xmlns:sodipodi="http://sodipodi.sourceforge.net/DTD/sodipodi-0.dtd"
   xmlns:inkscape="http://www.inkscape.org/namespaces/inkscape"
   width="40"
   height="40"
   viewBox="0 0 40 40"
   fill="none"
   version="1.1"
   id="svg4"
   sodipodi:docname="Base.svg"
   inkscape:version="0.92.5 (2060ec1f9f, 2020-04-08)">
  <metadata
     id="metadata10">
    <rdf:RDF>
      <cc:Work
         rdf:about="">
        <dc:format>image/svg+xml</dc:format>
        <dc:type
           rdf:resource="http://purl.org/dc/dcmitype/StillImage" />
        <dc:title></dc:title>
      </cc:Work>
    </rdf:RDF>
  </metadata>
  <defs
     id="defs8" />
  <sodipodi:namedview
     pagecolor="#ffffff"
     bordercolor="#666666"
     borderopacity="1"
     objecttolerance="10"
     gridtolerance="10"
     guidetolerance="10"
     inkscape:pageopacity="0"
     inkscape:pageshadow="2"
     inkscape:window-width="1920"
     inkscape:window-height="980"
     id="namedview6"
     showgrid="false"
     inkscape:zoom="5.9"
     inkscape:cx="20"
     inkscape:cy="20"
     inkscape:window-x="0"
     inkscape:window-y="27"
     inkscape:window-maximized="1"
     inkscape:current-layer="svg4" />
  <rect
     width="40"
     height="40"
     rx="12"
     fill="#98BAFC"
     id="rect2" />
  <g
     id="g827"
     transform="translate(1.5254239,0.5084748)">
    <path
       id="path2"
       d="m 20.199876,12.021215 c -0.5523,0 -1,0.44772 -1,1 v 17.47031 h 4.4121 v -2.944 c 0,-0.2209 0.179,-0.4 0.4,-0.4 h 0.6505 c 0.2209,0 0.4,0.1791 0.4,0.4 v 2.944 h 4.4121 v -17.47031 c 0,-0.55228 -0.4477,-1 -1,-1 z m 6.9377,10.91431 c 0,0.2209 -0.1791,0.4 -0.4,0.4 h -4.8008 c -0.2209,0 -0.4,-0.1791 -0.4,-0.4 v -0.6506 c 0,-0.2209 0.1791,-0.4 0.4,-0.4 h 4.8008 c 0.2209,0 0.4,0.1791 0.4,0.4 z m 0,-3.5297 c 0,0.2209 -0.1791,0.4 -0.4,0.4 h -4.8008 c -0.2209,0 -0.4,-0.1791 -0.4,-0.4 v -0.6505 c 0,-0.221 0.1791,-0.40004 0.4,-0.40004 h 4.8008 c 0.2209,0 0.4,0.17904 0.4,0.40004 z m 0,-3.52966 c 0,0.22091 -0.1791,0.4 -0.4,0.4 h -4.8008 c -0.2209,0 -0.4,-0.17909 -0.4,-0.4 v -0.65055 c 0,-0.22091 0.1791,-0.4 0.4,-0.4 h 4.8008 c 0.2209,0 0.4,0.17909 0.4,0.4 z"
       style="fill:#ffffff"
       inkscape:connector-curvature="0" />
    <path
       id="path4"
       d="m 7.4745763,30.491525 h 4.4120897 v -2.944 c 0,-0.2209 0.17908,-0.4 0.4,-0.4 h 0.65055 c 0.22091,0 0.4,0.1791 0.4,0.4 v 2.944 h 4.41206 V 9.4915254 c 0,-0.552284 -0.44769,-1 -0.99998,-1 H 8.4745763 c -0.552284,0 -1,0.447715 -1,1 z m 2.33698,-18.7956 c 0,-0.22092 0.17909,-0.4 0.3999997,-0.4 h 4.80077 c 0.22091,0 0.4,0.17908 0.4,0.4 v 0.65055 c 0,0.22091 -0.17909,0.4 -0.40001,0.4 h -4.80076 c -0.2209097,0 -0.3999997,-0.17909 -0.3999997,-0.4 z m 0,3.52967 c 0,-0.22092 0.17909,-0.4 0.3999997,-0.4 h 4.80077 c 0.22091,0 0.4,0.17908 0.4,0.4 v 0.65055 c 0,0.22091 -0.17909,0.4 -0.40001,0.4 h -4.80076 c -0.2209097,0 -0.3999997,-0.17909 -0.3999997,-0.4 z m 0,3.52963 c 0,-0.2209 0.17909,-0.39996 0.3999997,-0.39996 h 4.80077 c 0.22091,0 0.4,0.17906 0.4,0.39996 v 0.6506 c 0,0.2209 -0.17909,0.4 -0.40001,0.4 h -4.80076 c -0.2209097,0 -0.3999997,-0.1791 -0.3999997,-0.4 z m 0,3.5297 c 0,-0.2209 0.17909,-0.4 0.3999997,-0.4 h 4.80077 c 0.22091,0 0.4,0.1791 0.4,0.4 v 0.6506 c 0,0.2209 -0.17909,0.4 -0.40001,0.4 h -4.80076 c -0.2209097,0 -0.3999997,-0.1791 -0.3999997,-0.4 z"
       style="fill:#ffffff"
       inkscape:connector-curvature="0" />
  </g>
</svg>
